<svg version="1.1" xmlns="http://www.w3.org/2000/svg" viewBox="0 0 194.97906494140625 96.962158203125" width="194.97906494140625" height="96.962158203125" class="excalidraw-svg">
  <!-- svg-source:excalidraw -->
  
  <defs>
    <style class="style-fonts">
      
    </style>
    
  </defs>
  <rect x="0" y="0" width="194.97906494140625" height="96.962158203125" fill="#ffffff"></rect><g stroke-linecap="round" transform="translate(10 10) rotate(0 87.48953247070312 38.4810791015625)"><path d="M19.24 0 C57.78 1.05, 96.93 1.36, 155.74 0 M19.24 0 C62.3 0.74, 106.31 0.81, 155.74 0 M155.74 0 C168 0.39, 174.66 6.03, 174.98 19.24 M155.74 0 C169.03 0.9, 174.2 6.85, 174.98 19.24 M174.98 19.24 C174.44 31.77, 173.73 42.01, 174.98 57.72 M174.98 19.24 C174.15 31.68, 175.91 45.83, 174.98 57.72 M174.98 57.72 C176.71 69.01, 167.66 75.95, 155.74 76.96 M174.98 57.72 C173.58 71.34, 166.84 79.03, 155.74 76.96 M155.74 76.96 C125.54 76.63, 96.92 77.05, 19.24 76.96 M155.74 76.96 C114.3 76.99, 74.78 78.08, 19.24 76.96 M19.24 76.96 C6.61 75.57, 0.61 69.08, 0 57.72 M19.24 76.96 C7.01 75.55, -1.03 72.67, 0 57.72 M0 57.72 C0.46 49.18, -1.36 39.25, 0 19.24 M0 57.72 C-0.41 43.41, -0.56 27.11, 0 19.24 M0 19.24 C-1.42 6.5, 5.49 -1.86, 19.24 0 M0 19.24 C0.07 5.36, 6.09 0.23, 19.24 0" stroke="#1e1e1e" stroke-width="2" fill="none"></path></g></svg>